<?xml version="1.0" encoding="iso-8859-1"?>
<!-- Generator: Adobe Illustrator 19.0.0, SVG Export Plug-In . SVG Version: 6.00 Build 0)  -->
<svg version="1.1" id="Layer_1" xmlns="http://www.w3.org/2000/svg" xmlns:xlink="http://www.w3.org/1999/xlink" x="0px" y="0px"
	 viewBox="0 0 512 512" style="enable-background:new 0 0 512 512;" xml:space="preserve">
<g>
	<path style="fill:#ED8A19;" d="M462.446,512H82.286c-25.243,0-45.714-20.471-45.714-45.714l0,0
		c0-25.243,20.471-45.714,45.714-45.714h393.143v78.446C475.429,506.185,469.614,512,462.446,512"/>
	<g>
		<path style="fill:#ECBA16;" d="M118.857,475.429H73.143c-5.047,0-9.143-4.087-9.143-9.143s4.096-9.143,9.143-9.143h45.714
			c5.047,0,9.143,4.087,9.143,9.143S123.904,475.429,118.857,475.429"/>
		<path style="fill:#ECBA16;" d="M384,475.429H155.429c-5.047,0-9.143-4.087-9.143-9.143s4.096-9.143,9.143-9.143H384
			c5.047,0,9.143,4.087,9.143,9.143S389.047,475.429,384,475.429"/>
		<path style="fill:#ECBA16;" d="M36.571,356.571v109.714c0-25.243,20.471-45.714,45.714-45.714h393.143V30.144
			C475.429,13.495,461.934,0,445.285,0H63.104C48.448,0,36.571,11.877,36.571,26.533v92.325V356.571z"/>
	</g>
	<path style="fill:#EDEBDA;" d="M326.096,155.429H185.908c-6.738,0-12.197-5.458-12.197-12.187V76.187
		c0-6.729,5.458-12.187,12.197-12.187h140.187c6.729,0,12.187,5.458,12.187,12.187v67.054
		C338.283,149.97,332.825,155.429,326.096,155.429"/>
	<g>
		<path style="fill:#ED8A19;" d="M310.857,329.143H201.143c-5.047,0-9.143-4.087-9.143-9.143c0-5.056,4.096-9.143,9.143-9.143
			h109.714c5.047,0,9.143,4.087,9.143,9.143C320,325.056,315.904,329.143,310.857,329.143"/>
		<path style="fill:#ED8A19;" d="M347.429,365.714H164.571c-5.047,0-9.143-4.087-9.143-9.143s4.096-9.143,9.143-9.143h182.857
			c5.047,0,9.143,4.087,9.143,9.143S352.475,365.714,347.429,365.714"/>
	</g>
</g>
<g>
</g>
<g>
</g>
<g>
</g>
<g>
</g>
<g>
</g>
<g>
</g>
<g>
</g>
<g>
</g>
<g>
</g>
<g>
</g>
<g>
</g>
<g>
</g>
<g>
</g>
<g>
</g>
<g>
</g>
</svg>
